<svg xmlns="http://www.w3.org/2000/svg" width="933.333" height="933.333" viewBox="0 0 700.000000 700.000000"><path fill="#f72210" d="M306.5.6c-30.8 3-42.3 4.8-63 10C191 23.7 141.1 49.5 99.1 85.4l-9.5 8.1 128.5.5 128.4.5-.3 3c-.4 3.6-13 84.1-13.7 87.2l-.5 2.3H116v103h97.5c53.6 0 97.5.3 97.5.6 0 .4-3.4 20.1-7.5 43.9-4.1 23.7-7.5 43.5-7.5 43.8 0 .4-40.5.7-90 .7h-90v30.9c0 33.7.8 41.6 5.4 51.3 5.1 10.8 12.9 17.1 25.1 20.3 5.1 1.3 18.8 1.5 101.3 1.5 90.3 0 95.3.1 94.8 1.7-.2 1-3.8 21.7-7.8 46l-7.3 44.3h-108c-113.4 0-117.8-.2-134.8-4.6-15.5-4-32.5-14-43.3-25.7-5.6-6-6.3-6.5-4.4-3.2 16.7 28.9 46.3 60.8 79.5 85.7 62.8 47 138.2 72.8 212.4 72.8 21.9 0 52.7-3.5 74.5-8.5 87.5-19.9 164.4-72.8 214.3-147.5 63.6-95.2 76.6-216 34.6-322.5C612.7 121 528.8 44.3 425.6 14.1c-30.7-9-57.7-13-91.6-13.5-12.9-.2-25.3-.2-27.5 0z"/></svg>
